<svg xmlns="http://www.w3.org/2000/svg" width="400" height="215" viewBox="0 0 400 215" fill="none" role="img">
<style>text{font-family:-apple-system,BlinkMacSystemFont,"Segoe UI",Ubuntu,sans-serif}</style>
<rect width="400" height="215" rx="4.5" fill="#1a1b27"/>
<text x="25" y="33" font-size="16" font-weight="600" fill="#70a5fd">Top Languages — public repos</text>
<rect x="25" y="50" width="350" height="10" rx="5" fill="#565f89"/>
<rect x="25.0" y="50" width="306.6" height="10" fill="#3572A5"/>
<rect x="331.6" y="50" width="26.1" height="10" fill="#dea584"/>
<rect x="357.8" y="50" width="7.3" height="10" fill="#89e051"/>
<rect x="365.1" y="50" width="4.5" height="10" fill="#f1e05a"/>
<rect x="369.6" y="50" width="3.5" height="10" fill="#012456"/>
<rect x="373.1" y="50" width="1.0" height="10" fill="#663399"/>
<circle cx="30" cy="88" r="5" fill="#3572A5"/>
<text x="43" y="92" font-size="13" fill="#38bdae">Python 87.6%</text>
<circle cx="210" cy="88" r="5" fill="#dea584"/>
<text x="223" y="92" font-size="13" fill="#38bdae">Rust 7.5%</text>
<circle cx="30" cy="114" r="5" fill="#89e051"/>
<text x="43" y="118" font-size="13" fill="#38bdae">Shell 2.1%</text>
<circle cx="210" cy="114" r="5" fill="#f1e05a"/>
<text x="223" y="118" font-size="13" fill="#38bdae">JavaScript 1.3%</text>
<circle cx="30" cy="140" r="5" fill="#012456"/>
<text x="43" y="144" font-size="13" fill="#38bdae">PowerShell 1.0%</text>
<circle cx="210" cy="140" r="5" fill="#663399"/>
<text x="223" y="144" font-size="13" fill="#38bdae">CSS 0.3%</text>
</svg>
